<?xml version="1.0" standalone="no"?>
<!DOCTYPE svg PUBLIC "-//W3C//DTD SVG 20010904//EN"
 "http://www.w3.org/TR/2001/REC-SVG-20010904/DTD/svg10.dtd">
<svg version="1.0" xmlns="http://www.w3.org/2000/svg"
 width="836.000000pt" height="836.000000pt" viewBox="0 0 836.000000 836.000000"
 preserveAspectRatio="xMidYMid meet">
<metadata>
Created by potrace 1.14, written by Peter Selinger 2001-2017
</metadata>
<g transform="translate(0.000000,836.000000) scale(0.100000,-0.100000)"
fill="#000000" stroke="none">
<path d="M1996 8023 c-1 -1 -47 -7 -102 -13 -139 -16 -295 -49 -369 -80 -28
-12 -69 -23 -74 -21 -2 2 -7 -2 -10 -8 -4 -6 -16 -12 -26 -14 -27 -5 -213 -96
-220 -108 -4 -5 -11 -7 -16 -4 -5 4 -9 1 -9 -4 0 -6 -6 -11 -13 -11 -7 0 -22
-8 -33 -17 -10 -10 -32 -25 -47 -33 -16 -8 -40 -24 -53 -37 -13 -12 -24 -20
-24 -18 0 3 -8 -3 -18 -12 -11 -10 -36 -32 -58 -49 -56 -45 -144 -133 -144
-145 0 -5 -4 -9 -9 -9 -28 0 -217 -273 -280 -404 -57 -118 -114 -270 -114
-298 0 -16 -3 -28 -7 -28 -7 0 -10 -12 -13 -60 -1 -16 -5 -30 -8 -30 -3 0 -9
-24 -13 -52 -4 -29 -11 -91 -17 -138 -7 -58 -11 -807 -11 -2325 l0 -2240 22
-120 c12 -66 26 -125 31 -131 5 -7 9 -16 8 -20 -1 -5 0 -16 4 -24 3 -8 18 -53
33 -100 15 -47 31 -86 35 -88 5 -2 9 -10 9 -17 0 -13 78 -175 89 -185 3 -3 15
-21 25 -40 75 -135 230 -298 418 -438 110 -82 224 -153 249 -155 10 -1 16 -4
14 -7 -5 -8 192 -90 216 -90 10 0 19 -4 19 -8 0 -5 6 -9 13 -10 6 0 30 -6 52
-12 22 -6 47 -12 55 -14 9 -1 21 -5 28 -10 6 -4 16 -5 21 -1 5 3 12 1 15 -4 5
-8 36 -13 163 -28 70 -8 544 -9 549 -2 2 4 19 3 38 -1 19 -4 40 -4 47 1 7 4
20 4 30 -1 9 -5 18 -7 21 -5 5 5 40 6 149 4 36 -1 71 1 77 5 6 3 13 2 17 -3 3
-6 16 -7 28 -3 12 4 36 6 52 5 17 -2 35 -3 40 -3 297 6 1375 4 1375 -2 0 -5 6
-6 12 -1 19 11 68 10 68 -2 0 -6 3 -7 8 0 8 12 52 13 69 2 6 -4 14 -4 17 1 8
14 526 12 526 -1 0 -8 3 -8 8 -2 9 13 32 18 32 7 0 -4 9 -8 20 -9 13 -1 18 2
13 10 -5 9 -3 9 8 1 17 -14 349 -16 349 -2 0 5 8 4 19 -1 10 -6 20 -8 23 -6
11 11 138 11 138 1 0 -7 3 -7 8 -1 7 10 132 14 132 4 0 -3 20 -3 45 1 25 4 48
3 51 -2 3 -5 11 -5 17 -1 7 5 35 7 62 5 28 -2 160 -3 295 -4 247 0 417 12 502
38 9 3 25 7 35 9 10 2 32 8 50 14 17 5 34 7 37 3 3 -3 6 1 6 8 0 7 3 11 6 7 5
-5 58 10 104 30 8 3 23 8 32 9 34 7 302 142 335 169 7 6 18 15 25 21 7 5 28
19 46 29 17 11 32 23 32 27 0 4 5 8 11 8 13 0 51 33 148 131 84 83 94 95 163
189 27 36 52 70 56 75 5 6 21 35 38 65 16 30 35 60 42 68 11 13 16 28 13 45 0
4 3 7 8 7 5 0 17 23 27 50 10 28 22 50 28 50 5 0 7 3 3 6 -3 4 0 18 7 33 20
38 58 172 57 199 0 12 3 22 7 22 5 0 9 6 10 13 1 6 4 35 7 62 4 28 10 77 13
110 9 82 9 4398 0 4510 -11 126 -15 170 -18 170 -1 0 -4 9 -5 20 -10 70 -15
97 -30 155 -10 36 -20 67 -24 70 -3 3 -7 18 -8 34 -1 16 -8 33 -15 38 -7 4
-10 8 -6 8 8 0 -14 62 -52 148 -11 23 -19 45 -19 49 1 3 -3 9 -8 12 -5 3 -22
31 -37 61 -16 30 -32 57 -35 60 -4 3 -17 22 -29 43 -53 92 -215 271 -331 368
-29 24 -59 49 -65 55 -6 5 -45 32 -86 60 -103 67 -113 73 -130 81 -8 4 -31 16
-50 28 -19 12 -53 28 -75 35 -22 7 -53 20 -70 28 -16 9 -36 17 -43 18 -8 1
-21 6 -30 10 -9 4 -21 8 -27 10 -5 1 -50 14 -99 28 -99 29 -184 45 -331 61
-53 6 -4393 14 -4399 8z"/>
</g>
</svg>
